<?xml version="1.0" standalone="no"?>
<!DOCTYPE svg PUBLIC "-//W3C//DTD SVG 20010904//EN"
 "http://www.w3.org/TR/2001/REC-SVG-20010904/DTD/svg10.dtd">
<svg version="1.0" xmlns="http://www.w3.org/2000/svg"
 width="260.000000pt" height="209.000000pt" viewBox="0 0 260.000000 209.000000"
 preserveAspectRatio="xMidYMid meet">

<g transform="translate(0.000000,209.000000) scale(0.100000,-0.100000)"
fill="#000000" stroke="none">
<path d="M300 1519 c0 -6 14 -27 31 -46 l30 -35 -3 -158 c-3 -158 -3 -159 -30
-187 -16 -16 -28 -37 -28 -46 0 -15 16 -17 154 -17 143 0 155 -2 187 -23 29
-19 34 -29 37 -67 4 -58 -3 -82 -34 -113 -21 -21 -37 -27 -70 -27 -23 0 -46
-4 -49 -10 -4 -6 15 -10 49 -10 67 0 92 -19 101 -77 18 -114 41 -133 163 -133
69 0 94 12 52 25 -27 9 -50 55 -50 101 0 29 -7 44 -36 70 -28 27 -32 35 -20
40 21 8 54 63 56 94 5 57 -2 80 -31 111 -30 32 -30 33 -11 48 30 24 42 55 42
108 0 60 -28 109 -75 129 -23 9 -71 14 -145 14 l-110 0 0 110 0 110 -105 0
c-71 0 -105 -4 -105 -11z m330 -254 c34 -18 54 -70 44 -119 -8 -43 -50 -83
-99 -92 -62 -11 -65 -7 -65 116 l0 110 45 0 c26 0 59 -7 75 -15z"/>
<path d="M1005 953 c-6 -1 -9 -29 -7 -63 3 -38 -1 -66 -8 -75 -10 -13 -8 -15
11 -15 23 0 24 3 21 57 -4 89 -6 100 -17 96z"/>
<path d="M1845 952 c-5 -4 -10 -40 -10 -80 0 -58 3 -72 15 -72 12 0 15 9 12
39 -2 23 1 42 8 46 18 11 31 -15 27 -52 -2 -25 1 -33 13 -33 13 0 15 8 10 48
-4 42 -8 47 -30 47 -20 0 -26 6 -30 32 -3 19 -9 29 -15 25z"/>
<path d="M1048 879 c4 -75 12 -86 57 -75 53 13 57 82 4 93 -22 4 -29 11 -29
29 0 16 -6 24 -17 24 -16 0 -18 -9 -15 -71z m62 -3 c16 -20 9 -60 -12 -64 -15
-3 -18 4 -18 37 0 43 9 51 30 27z"/>
<path d="M2146 943 c-11 -11 -6 -23 9 -23 8 0 15 4 15 9 0 13 -16 22 -24 14z"/>
<path d="M1168 850 c-3 -45 -1 -50 17 -50 18 0 20 5 17 41 -3 32 -1 40 11 37
9 -2 16 1 17 7 0 5 -13 11 -29 12 -28 3 -29 1 -33 -47z"/>
<path d="M1306 884 c-35 -34 -2 -98 40 -79 18 8 17 9 -3 12 -13 3 -23 9 -24
14 -5 39 -2 54 11 54 8 0 14 -6 13 -12 -2 -7 4 -13 13 -13 23 0 13 34 -12 38
-12 2 -29 -4 -38 -14z"/>
<path d="M1389 851 c-4 -46 -2 -51 16 -51 17 0 20 6 19 47 -1 34 -6 49 -17 51
-11 2 -16 -9 -18 -47z"/>
<path d="M1450 880 c7 -12 9 -35 6 -51 -4 -23 -2 -29 12 -29 15 0 17 7 12 47
-4 36 -10 49 -23 51 -16 3 -17 1 -7 -18z"/>
<path d="M1516 891 c-3 -5 -5 -29 -4 -52 2 -24 -1 -50 -5 -56 -12 -20 1 -33
33 -33 30 0 60 22 60 45 0 14 -21 25 -49 25 -14 0 -17 8 -17 40 1 38 -6 50
-18 31z m59 -111 c0 -18 -33 -26 -47 -12 -6 6 -7 15 -3 22 10 16 50 8 50 -10z"/>
<path d="M1558 870 c2 -16 8 -30 12 -30 4 0 13 14 19 30 9 28 8 30 -13 30 -19
0 -22 -4 -18 -30z"/>
<path d="M1626 884 c-35 -34 -2 -98 40 -79 18 8 17 9 -3 12 -13 3 -23 9 -24
14 -5 42 -2 54 15 57 14 3 17 0 13 -12 -4 -10 -1 -16 9 -16 24 0 12 34 -12 38
-12 2 -29 -4 -38 -14z"/>
<path d="M1717 866 c3 -22 1 -42 -7 -51 -10 -13 -9 -15 11 -15 22 0 24 4 23
47 -1 35 -6 49 -17 51 -13 3 -15 -3 -10 -32z"/>
<path d="M1770 880 c7 -12 9 -35 6 -51 -4 -23 -2 -29 12 -29 15 0 17 7 12 47
-4 36 -10 49 -23 51 -16 3 -17 1 -7 -18z"/>
<path d="M1960 890 c-8 -5 -11 -12 -7 -17 5 -4 12 -1 16 6 8 13 31 8 31 -7 0
-4 -14 -15 -31 -25 -26 -14 -29 -20 -19 -32 18 -21 30 -18 27 6 -1 12 4 24 11
27 9 3 13 -3 10 -19 -2 -16 3 -25 14 -27 14 -3 16 3 12 35 -3 21 -7 44 -10 51
-4 14 -33 16 -54 2z"/>
<path d="M2059 898 c0 -2 -1 -24 -2 -51 -2 -44 0 -47 23 -47 17 0 21 3 12 9
-20 12 -11 66 11 65 9 -1 17 4 17 12 0 17 -12 18 -28 2 -9 -9 -12 -9 -12 0 0
10 -18 18 -21 10z"/>
<path d="M2141 862 c2 -21 0 -43 -5 -50 -5 -8 0 -12 16 -12 21 0 23 3 20 50
-3 36 -8 50 -19 50 -11 0 -14 -10 -12 -38z"/>
<path d="M2210 890 c-8 -5 -11 -12 -7 -17 5 -4 12 -1 16 6 8 13 31 8 31 -7 0
-4 -14 -15 -31 -25 -26 -14 -29 -20 -19 -32 18 -21 30 -18 27 6 -1 12 4 24 11
27 9 3 13 -3 10 -19 -2 -16 2 -24 12 -24 11 0 14 10 11 40 -1 22 -5 43 -8 48
-6 10 -35 9 -53 -3z"/>
<path d="M1665 708 c-2 -7 -5 -43 -7 -81 -3 -61 -1 -67 17 -67 19 0 20 6 17
80 -3 72 -15 102 -27 68z"/>
<path d="M1990 695 c0 -9 5 -15 11 -13 6 2 11 8 11 13 0 5 -5 11 -11 13 -6 2
-11 -4 -11 -13z"/>
<path d="M1722 674 c-9 -16 -1 -99 11 -110 3 -4 14 -3 24 1 12 5 14 9 6 12 -7
3 -13 20 -13 38 0 18 6 36 13 38 10 4 10 6 0 6 -7 1 -13 8 -13 16 0 20 -17 19
-28 -1z"/>
<path d="M1002 648 c-15 -15 -15 -61 0 -76 16 -16 30 -15 54 3 18 13 18 14 -5
8 -14 -4 -26 -1 -32 8 -15 23 -10 29 22 29 23 0 30 4 27 17 -2 9 -9 18 -17 21
-10 3 -12 0 -8 -12 5 -11 1 -16 -13 -16 -13 0 -18 5 -14 15 7 18 2 19 -14 3z"/>
<path d="M1134 635 c-15 -23 -15 -27 0 -50 18 -27 32 -31 56 -15 12 8 11 10
-6 10 -23 0 -34 17 -34 52 0 16 5 19 25 16 14 -3 25 -1 25 3 0 20 -50 8 -66
-16z"/>
<path d="M1232 648 c-19 -19 -15 -66 7 -78 28 -14 38 -13 61 10 24 24 25 43 4
64 -20 20 -41 22 -25 2 15 -18 11 -68 -6 -74 -20 -6 -37 42 -24 67 13 23 2 28
-17 9z"/>
<path d="M1335 610 c0 -41 3 -50 18 -50 14 0 17 9 17 50 0 41 -3 50 -17 50
-15 0 -18 -9 -18 -50z"/>
<path d="M1388 648 c7 -7 12 -29 12 -50 0 -30 4 -38 19 -38 14 0 17 6 14 28
-10 65 -13 72 -35 72 -17 0 -19 -3 -10 -12z"/>
<path d="M1456 644 c-3 -9 5 -25 21 -40 29 -27 23 -45 -9 -25 -17 10 -19 10
-16 -1 7 -19 49 -16 62 5 9 15 6 22 -17 38 -15 12 -25 25 -21 30 3 5 1 9 -4 9
-6 0 -13 -7 -16 -16z"/>
<path d="M1495 650 c3 -5 8 -10 11 -10 2 0 4 5 4 10 0 6 -5 10 -11 10 -5 0 -7
-4 -4 -10z"/>
<path d="M1538 623 c2 -21 8 -43 13 -49 8 -9 48 -12 79 -5 3 1 4 21 2 46 -3
34 -8 45 -21 45 -13 0 -16 -8 -13 -40 3 -32 1 -40 -12 -40 -12 0 -16 10 -16
40 0 32 -4 40 -18 40 -15 0 -17 -7 -14 -37z"/>
<path d="M1790 639 c-17 -31 -4 -68 26 -75 46 -12 85 51 52 84 -20 20 -23 14
-19 -34 3 -40 1 -45 -15 -42 -15 3 -19 12 -19 46 0 46 -8 53 -25 21z"/>
<path d="M1905 609 c0 -37 4 -49 15 -49 12 0 15 9 12 40 -4 35 -2 40 17 40 12
0 21 4 21 9 0 5 -15 9 -32 9 -33 0 -33 0 -33 -49z"/>
<path d="M1985 610 c0 -43 3 -50 20 -50 18 0 20 5 17 50 -3 38 -8 50 -20 50
-14 0 -17 -10 -17 -50z"/>
<path d="M2050 645 c-8 -9 -9 -15 -2 -15 6 0 14 5 17 10 9 14 25 12 25 -3 0
-8 -11 -19 -25 -25 -26 -12 -33 -37 -12 -44 6 -3 25 -4 42 -4 29 1 30 3 26 41
-1 22 -5 43 -8 48 -8 13 -50 8 -63 -8z m40 -50 c0 -8 -4 -15 -10 -15 -5 0 -10
7 -10 15 0 8 5 15 10 15 6 0 10 -7 10 -15z"/>
</g>
</svg>
